<svg width="28" height="28" viewBox="0 0 28 28" fill="none" xmlns="http://www.w3.org/2000/svg">
<path d="M19.8333 2.3335H8.16668C4.94502 2.3335 2.33334 4.94517 2.33334 8.16683V19.8335C2.33334 23.0552 4.94502 25.6668 8.16668 25.6668H19.8333C23.055 25.6668 25.6667 23.0552 25.6667 19.8335V8.16683C25.6667 4.94517 23.055 2.3335 19.8333 2.3335Z" stroke="#3B71FE" stroke-width="2" stroke-linecap="round" stroke-linejoin="round"/>
<path d="M20.4167 7.5835H20.4283M18.6667 13.2652C18.8107 14.2361 18.6448 15.2277 18.1927 16.099C17.7407 16.9703 17.0254 17.6768 16.1486 18.1181C15.2718 18.5594 14.2782 18.713 13.3091 18.5571C12.34 18.4011 11.4447 17.9436 10.7507 17.2495C10.0566 16.5554 9.59904 15.6602 9.44309 14.6911C9.28715 13.722 9.44076 12.7284 9.88206 11.8516C10.3234 10.9748 11.0299 10.2595 11.9012 9.80744C12.7724 9.35536 13.7641 9.18952 14.735 9.3335C15.7254 9.48036 16.6423 9.94187 17.3503 10.6499C18.0583 11.3578 18.5198 12.2748 18.6667 13.2652Z" stroke="#3B71FE" stroke-width="2" stroke-linecap="round" stroke-linejoin="round"/>
</svg>
