<svg width="183" height="32" viewBox="0 0 183 32" fill="none" xmlns="http://www.w3.org/2000/svg">
<path d="M16.76 7.87374C16.248 6.93508 15.544 6.22041 14.648 5.72975C13.752 5.23908 12.7067 4.99375 11.512 4.99375C10.1893 4.99375 9.016 5.29241 7.992 5.88975C6.968 6.48708 6.168 7.34041 5.592 8.44975C5.016 9.55908 4.728 10.8391 4.728 12.2897C4.728 13.7831 5.016 15.0844 5.592 16.1937C6.18933 17.3031 7.01067 18.1564 8.056 18.7537C9.10133 19.3511 10.3173 19.6497 11.704 19.6497C13.4107 19.6497 14.808 19.2017 15.896 18.3057C16.984 17.3884 17.6987 16.1191 18.04 14.4977H10.36V11.0737H22.456V14.9777C22.1573 16.5351 21.5173 17.9751 20.536 19.2977C19.5547 20.6204 18.2853 21.6871 16.728 22.4977C15.192 23.2871 13.464 23.6817 11.544 23.6817C9.38933 23.6817 7.43733 23.2017 5.688 22.2417C3.96 21.2604 2.59467 19.9057 1.592 18.1777C0.610667 16.4497 0.12 14.4871 0.12 12.2897C0.12 10.0924 0.610667 8.12975 1.592 6.40174C2.59467 4.65241 3.96 3.29774 5.688 2.33775C7.43733 1.35641 9.37867 0.865746 11.512 0.865746C14.0293 0.865746 16.216 1.48441 18.072 2.72174C19.928 3.93775 21.208 5.65508 21.912 7.87374H16.76ZM30.2505 8.51375C30.8265 7.57508 31.5732 6.83908 32.4905 6.30575C33.4292 5.77241 34.4958 5.50574 35.6905 5.50574V10.2097H34.5065C33.0985 10.2097 32.0318 10.5404 31.3065 11.2017C30.6025 11.8631 30.2505 13.0151 30.2505 14.6577V23.4897H25.7705V5.76175H30.2505V8.51375ZM55.188 14.2417C55.188 14.8817 55.1453 15.4577 55.06 15.9697H42.1C42.2067 17.2497 42.6547 18.2524 43.444 18.9777C44.2333 19.7031 45.204 20.0657 46.356 20.0657C48.02 20.0657 49.204 19.3511 49.908 17.9217H54.74C54.228 19.6284 53.2467 21.0364 51.796 22.1457C50.3453 23.2337 48.564 23.7777 46.452 23.7777C44.7453 23.7777 43.2093 23.4044 41.844 22.6577C40.5 21.8897 39.444 20.8124 38.676 19.4257C37.9293 18.0391 37.556 16.4391 37.556 14.6257C37.556 12.7911 37.9293 11.1804 38.676 9.79375C39.4227 8.40708 40.468 7.34041 41.812 6.59375C43.156 5.84708 44.7027 5.47375 46.452 5.47375C48.1373 5.47375 49.6413 5.83641 50.964 6.56174C52.308 7.28708 53.3427 8.32175 54.068 9.66575C54.8147 10.9884 55.188 12.5137 55.188 14.2417ZM50.548 12.9617C50.5267 11.8097 50.1107 10.8924 49.3 10.2097C48.4893 9.50575 47.4973 9.15375 46.324 9.15375C45.2147 9.15375 44.276 9.49508 43.508 10.1777C42.7613 10.8391 42.3027 11.7671 42.132 12.9617H50.548ZM75.418 5.76175L64.442 31.8737H59.674L63.514 23.0417L56.41 5.76175H61.434L66.01 18.1457L70.65 5.76175H75.418Z" fill="#3B71FE"/>
<path d="M102.185 1.15375V23.4897H97.705V8.96175L91.721 23.4897H88.329L82.313 8.96175V23.4897H77.833V1.15375H82.921L90.025 17.7617L97.129 1.15375H102.185ZM105.462 14.5617C105.462 12.7697 105.814 11.1804 106.518 9.79375C107.244 8.40708 108.214 7.34041 109.43 6.59375C110.668 5.84708 112.044 5.47375 113.558 5.47375C114.881 5.47375 116.033 5.74041 117.014 6.27374C118.017 6.80708 118.817 7.47908 119.414 8.28975V5.76175H123.926V23.4897H119.414V20.8977C118.838 21.7297 118.038 22.4231 117.014 22.9777C116.012 23.5111 114.849 23.7777 113.526 23.7777C112.033 23.7777 110.668 23.3937 109.43 22.6257C108.214 21.8577 107.244 20.7804 106.518 19.3937C105.814 17.9857 105.462 16.3751 105.462 14.5617ZM119.414 14.6257C119.414 13.5377 119.201 12.6097 118.774 11.8417C118.348 11.0524 117.772 10.4551 117.046 10.0497C116.321 9.62308 115.542 9.40975 114.71 9.40975C113.878 9.40975 113.11 9.61241 112.406 10.0177C111.702 10.4231 111.126 11.0204 110.678 11.8097C110.252 12.5777 110.038 13.4951 110.038 14.5617C110.038 15.6284 110.252 16.5671 110.678 17.3777C111.126 18.1671 111.702 18.7751 112.406 19.2017C113.132 19.6284 113.9 19.8417 114.71 19.8417C115.542 19.8417 116.321 19.6391 117.046 19.2337C117.772 18.8071 118.348 18.2097 118.774 17.4417C119.201 16.6524 119.414 15.7137 119.414 14.6257ZM133.518 9.44175V18.0177C133.518 18.6151 133.656 19.0524 133.934 19.3297C134.232 19.5857 134.723 19.7137 135.406 19.7137H137.486V23.4897H134.67C130.894 23.4897 129.006 21.6551 129.006 17.9857V9.44175H126.894V5.76175H129.006V1.37774H133.518V5.76175H137.486V9.44175H133.518ZM145.924 9.44175V18.0177C145.924 18.6151 146.063 19.0524 146.34 19.3297C146.639 19.5857 147.129 19.7137 147.812 19.7137H149.892V23.4897H147.076C143.3 23.4897 141.412 21.6551 141.412 17.9857V9.44175H139.3V5.76175H141.412V1.37774H145.924V5.76175H149.892V9.44175H145.924ZM169.594 14.2417C169.594 14.8817 169.552 15.4577 169.466 15.9697H156.506C156.613 17.2497 157.061 18.2524 157.85 18.9777C158.64 19.7031 159.61 20.0657 160.762 20.0657C162.426 20.0657 163.61 19.3511 164.314 17.9217H169.146C168.634 19.6284 167.653 21.0364 166.202 22.1457C164.752 23.2337 162.97 23.7777 160.858 23.7777C159.152 23.7777 157.616 23.4044 156.25 22.6577C154.906 21.8897 153.85 20.8124 153.082 19.4257C152.336 18.0391 151.962 16.4391 151.962 14.6257C151.962 12.7911 152.336 11.1804 153.082 9.79375C153.829 8.40708 154.874 7.34041 156.218 6.59375C157.562 5.84708 159.109 5.47375 160.858 5.47375C162.544 5.47375 164.048 5.83641 165.37 6.56174C166.714 7.28708 167.749 8.32175 168.474 9.66575C169.221 10.9884 169.594 12.5137 169.594 14.2417ZM164.954 12.9617C164.933 11.8097 164.517 10.8924 163.706 10.2097C162.896 9.50575 161.904 9.15375 160.73 9.15375C159.621 9.15375 158.682 9.49508 157.914 10.1777C157.168 10.8391 156.709 11.7671 156.538 12.9617H164.954ZM177.344 8.51375C177.92 7.57508 178.667 6.83908 179.584 6.30575C180.523 5.77241 181.59 5.50574 182.784 5.50574V10.2097H181.6C180.192 10.2097 179.126 10.5404 178.4 11.2017C177.696 11.8631 177.344 13.0151 177.344 14.6577V23.4897H172.864V5.76175H177.344V8.51375Z" fill="#0E0E2C"/>
</svg>
